<svg width="200" height="158" viewBox="0 0 200 158" fill="none" xmlns="http://www.w3.org/2000/svg">
<rect x="42.0561" width="114.953" height="115.679" rx="57.4766" fill="#102C64"/>
<mask id="mask0_839_264" style="mask-type:alpha" maskUnits="userSpaceOnUse" x="42" y="0" width="116" height="116">
<path d="M42.0561 57.8393C42.0561 26.0958 67.7892 0 99.5327 0V0C131.276 0 157.009 26.0958 157.009 57.8393V57.8393C157.009 89.5828 131.276 115.679 99.5327 115.679V115.679C67.7892 115.679 42.0561 89.5828 42.0561 57.8393V57.8393Z" fill="#4FA097"/>
</mask>
<g mask="url(#mask0_839_264)">
<g filter="url(#filter0_f_839_264)">
<path fill-rule="evenodd" clip-rule="evenodd" d="M57.7964 95.2611C68.2693 106.386 83.0744 113.361 99.4861 113.361C131.23 113.361 156.963 87.2655 156.963 55.522C156.963 35.8602 147.09 18.3652 132.032 7.896C141.816 18.2889 147.819 32.3032 147.819 47.6351C147.819 79.3786 122.086 105.474 90.3421 105.474C78.2604 105.474 67.0494 101.694 57.7964 95.2611Z" fill="#234893"/>
</g>
</g>
<mask id="mask1_839_264" style="mask-type:alpha" maskUnits="userSpaceOnUse" x="42" y="0" width="116" height="116">
<path d="M42.0561 57.8393C42.0561 26.0958 67.7892 0 99.5327 0V0C131.276 0 157.009 26.0958 157.009 57.8393V57.8393C157.009 89.5828 131.276 115.679 99.5327 115.679V115.679C67.7892 115.679 42.0561 89.5828 42.0561 57.8393V57.8393Z" fill="#ADB9C4"/>
</mask>
<g mask="url(#mask1_839_264)">
<path d="M117.161 63.3865L114.435 59.6639L115.019 58.8802C115.019 58.8802 117.355 53.5728 119.302 53.7862C119.899 54.9398 118.022 56.94 119.302 57.1169C120.077 57.224 120.54 56.7878 121.249 56.3157C123.291 54.9559 123.39 51.4352 124.948 51.0432C126.639 50.6177 122.612 58.8802 122.612 58.8802L117.161 63.3865Z" fill="#E6E8F5"/>
<path d="M99.813 46.4137L98.6449 50.136L86.9639 43.8668V40.9282L85.4064 37.0099C85.4064 37.0099 81.7281 28.0078 90.4888 23.5997C98.6655 19.4854 103.707 26.8225 103.707 26.8225L104.485 28.9775C104.485 28.9775 105.273 30.9309 105.654 32.308C106.034 33.6852 106.432 36.0303 106.432 36.0303C106.432 36.0303 108.132 38.3977 107.99 39.5568C107.87 40.5291 106.432 40.5363 106.432 40.5363C106.432 40.5363 106.488 43.2436 105.848 44.6505C105.329 45.7914 104.97 46.4799 103.901 47.0014C102.45 47.7097 99.813 46.4137 99.813 46.4137Z" fill="#E6E8F5"/>
<path d="M134.487 110.389C134.892 108.418 134.942 106.676 133.709 104.903C132.346 102.944 125.921 99.2219 125.921 99.2219L117.55 94.7159L98.4709 92.5608L79.7812 101.377L80.9493 107.646H79.7812L76.4716 111.564C76.4716 111.564 69.5037 110.507 66.9321 112.936C65.9327 113.88 65.5693 115.679 65.5693 115.679H129.036C129.036 115.679 133.867 113.409 134.487 110.389Z" fill="#E6E8F5"/>
<path d="M84.8747 46.9134L86.4322 43.191L99.476 50.2439C99.5409 50.5051 99.6318 51.9679 99.476 55.7294C101.182 58.2176 102.642 60.9481 103.883 63.7618L113.688 57.4926L120.307 67.0923L107.403 73.7534C109.176 80.1677 109.983 86.0359 110.184 89.4264C110.703 89.9488 112.909 91.6989 117.582 94.5201C113.999 99.3787 108.302 101.246 105.901 101.573L100.644 94.5201V101.573C98.243 101.377 90.7542 101.103 80.0076 101.573C68.4823 68.0327 78.4501 51.1581 84.8747 46.9134Z" fill="#E6E8F5"/>
</g>
<path fill-rule="evenodd" clip-rule="evenodd" d="M60.1073 4.00632C57.1546 5.55777 54.87 8.3496 54.0731 11.849C52.6309 18.1819 56.5775 24.5641 62.9064 26.0239C66.3968 26.8289 69.8828 25.9686 72.5496 23.9726C69.924 30.3542 63.0003 34.1374 56.0625 32.5372C48.3272 30.7531 43.5035 22.9526 45.2662 15.2124C46.848 8.26657 53.2253 3.60147 60.1073 4.00632Z" fill="#F8F7F7"/>
<rect x="119.127" y="21.0325" width="3.91886" height="3.94384" rx="1.95943" fill="#F8F7F7"/>
<rect x="86.4698" y="7.88721" width="1.30629" height="1.31461" rx="0.653144" fill="#F8F7F7"/>
<rect x="136.109" y="31.5488" width="3.91886" height="3.94384" rx="1.95943" fill="#F8F7F7"/>
<rect x="48.5875" y="47.3229" width="3.91886" height="3.94384" rx="1.95943" fill="#F8F7F7"/>
<rect x="59.0378" y="69.6702" width="3.91886" height="3.94384" rx="1.95943" fill="#F8F7F7"/>
<rect x="143.946" y="60.4683" width="2.61257" height="2.62922" rx="1.30629" fill="#F8F7F7"/>
<path d="M4.83917 134.118C4.89784 134.118 5.07017 134.122 5.35617 134.129C5.64951 134.129 6.00151 134.129 6.41217 134.129C6.82284 134.122 7.24084 134.122 7.66617 134.129C8.09884 134.129 8.48384 134.133 8.82117 134.14C10.7645 134.169 12.3448 134.492 13.5622 135.108C14.7795 135.724 15.6705 136.611 16.2352 137.77C16.8072 138.921 17.0932 140.326 17.0932 141.983C17.0932 143.706 16.7888 145.169 16.1802 146.372C15.5715 147.567 14.6402 148.477 13.3862 149.1C12.1395 149.716 10.5592 150.024 8.64517 150.024H4.83917V134.118ZM7.23717 136.098V148.044H8.66717C9.86984 148.044 10.9148 147.85 11.8022 147.461C12.6968 147.065 13.3898 146.427 13.8812 145.547C14.3725 144.66 14.6182 143.475 14.6182 141.994C14.6182 140.542 14.3835 139.387 13.9142 138.529C13.4448 137.664 12.7702 137.044 11.8902 136.67C11.0175 136.289 9.96517 136.098 8.73317 136.098H7.23717ZM24.4455 150.244C23.3821 150.244 22.4508 150.017 21.6515 149.562C20.8595 149.1 20.2435 148.433 19.8035 147.56C19.3708 146.687 19.1545 145.631 19.1545 144.392C19.1545 143.197 19.3598 142.152 19.7705 141.257C20.1885 140.362 20.7935 139.669 21.5855 139.178C22.3775 138.679 23.3345 138.43 24.4565 138.43C25.5271 138.43 26.4548 138.665 27.2395 139.134C28.0241 139.596 28.6328 140.274 29.0655 141.169C29.4981 142.056 29.7145 143.131 29.7145 144.392C29.7145 145.543 29.5091 146.559 29.0985 147.439C28.6951 148.319 28.1011 149.008 27.3165 149.507C26.5391 149.998 25.5821 150.244 24.4455 150.244ZM24.4565 148.429C25.1018 148.429 25.6408 148.26 26.0735 147.923C26.5135 147.578 26.8435 147.098 27.0635 146.482C27.2835 145.859 27.3935 145.14 27.3935 144.326C27.3935 143.571 27.2945 142.885 27.0965 142.269C26.9058 141.646 26.5941 141.151 26.1615 140.784C25.7288 140.417 25.1605 140.234 24.4565 140.234C23.7965 140.234 23.2465 140.403 22.8065 140.74C22.3665 141.07 22.0328 141.543 21.8055 142.159C21.5855 142.768 21.4755 143.49 21.4755 144.326C21.4755 145.067 21.5745 145.749 21.7725 146.372C21.9705 146.995 22.2895 147.494 22.7295 147.868C23.1695 148.242 23.7451 148.429 24.4565 148.429ZM35.3045 150.244C34.5712 150.244 33.9185 150.112 33.3465 149.848C32.7819 149.584 32.3382 149.203 32.0155 148.704C31.6929 148.205 31.5315 147.604 31.5315 146.9C31.5315 145.639 31.9789 144.696 32.8735 144.073C33.7682 143.45 35.1945 143.12 37.1525 143.083L39.0225 143.028V142.203C39.0225 141.55 38.8282 141.037 38.4395 140.663C38.0509 140.289 37.4532 140.106 36.6465 140.113C36.0379 140.113 35.4952 140.252 35.0185 140.531C34.5492 140.81 34.2412 141.268 34.0945 141.906H32.0485C32.0925 141.151 32.3089 140.516 32.6975 140.003C33.0935 139.482 33.6362 139.09 34.3255 138.826C35.0149 138.562 35.8252 138.43 36.7565 138.43C37.7905 138.43 38.6412 138.573 39.3085 138.859C39.9759 139.138 40.4709 139.548 40.7935 140.091C41.1235 140.634 41.2885 141.294 41.2885 142.071V150.024H39.2975L39.1105 147.934C38.6852 148.807 38.1462 149.412 37.4935 149.749C36.8482 150.079 36.1185 150.244 35.3045 150.244ZM36.0415 148.605C36.4009 148.605 36.7565 148.543 37.1085 148.418C37.4605 148.286 37.7795 148.11 38.0655 147.89C38.3515 147.663 38.5789 147.41 38.7475 147.131C38.9235 146.852 39.0152 146.566 39.0225 146.273V144.392L37.4825 144.425C36.6979 144.432 36.0305 144.513 35.4805 144.667C34.9379 144.821 34.5199 145.059 34.2265 145.382C33.9405 145.705 33.7975 146.134 33.7975 146.669C33.7975 147.278 34.0102 147.754 34.4355 148.099C34.8609 148.436 35.3962 148.605 36.0415 148.605ZM53.4705 150.244C51.9745 150.244 50.7975 149.734 49.9395 148.715C49.0815 147.688 48.6525 146.211 48.6525 144.282C48.6525 143.101 48.8248 142.075 49.1695 141.202C49.5142 140.322 50.0275 139.64 50.7095 139.156C51.3988 138.672 52.2495 138.43 53.2615 138.43C53.7748 138.43 54.2295 138.492 54.6255 138.617C55.0288 138.742 55.3808 138.903 55.6815 139.101C55.9895 139.299 56.2425 139.512 56.4405 139.739C56.6458 139.966 56.8035 140.179 56.9135 140.377V133.678H59.2785V150.024H57.5185L57.2545 147.692C57.1738 147.941 57.0492 148.213 56.8805 148.506C56.7118 148.799 56.4808 149.078 56.1875 149.342C55.9015 149.606 55.5348 149.822 55.0875 149.991C54.6402 150.16 54.1012 150.244 53.4705 150.244ZM53.9215 148.473C54.9775 148.473 55.7402 148.143 56.2095 147.483C56.6788 146.816 56.9135 145.723 56.9135 144.205C56.9062 143.347 56.7998 142.621 56.5945 142.027C56.3892 141.433 56.0702 140.986 55.6375 140.685C55.2122 140.377 54.6512 140.223 53.9545 140.223C53.0818 140.223 52.3705 140.538 51.8205 141.169C51.2705 141.792 50.9955 142.804 50.9955 144.205C50.9955 145.584 51.2448 146.64 51.7435 147.373C52.2495 148.106 52.9755 148.473 53.9215 148.473ZM65.662 150.244C64.9286 150.244 64.276 150.112 63.704 149.848C63.1393 149.584 62.6956 149.203 62.373 148.704C62.0503 148.205 61.889 147.604 61.889 146.9C61.889 145.639 62.3363 144.696 63.231 144.073C64.1256 143.45 65.552 143.12 67.51 143.083L69.38 143.028V142.203C69.38 141.55 69.1856 141.037 68.797 140.663C68.4083 140.289 67.8106 140.106 67.004 140.113C66.3953 140.113 65.8526 140.252 65.376 140.531C64.9066 140.81 64.5986 141.268 64.452 141.906H62.406C62.45 141.151 62.6663 140.516 63.055 140.003C63.451 139.482 63.9936 139.09 64.683 138.826C65.3723 138.562 66.1826 138.43 67.114 138.43C68.148 138.43 68.9986 138.573 69.666 138.859C70.3333 139.138 70.8283 139.548 71.151 140.091C71.481 140.634 71.646 141.294 71.646 142.071V150.024H69.655L69.468 147.934C69.0426 148.807 68.5036 149.412 67.851 149.749C67.2056 150.079 66.476 150.244 65.662 150.244ZM66.399 148.605C66.7583 148.605 67.114 148.543 67.466 148.418C67.818 148.286 68.137 148.11 68.423 147.89C68.709 147.663 68.9363 147.41 69.105 147.131C69.281 146.852 69.3726 146.566 69.38 146.273V144.392L67.84 144.425C67.0553 144.432 66.388 144.513 65.838 144.667C65.2953 144.821 64.8773 145.059 64.584 145.382C64.298 145.705 64.155 146.134 64.155 146.669C64.155 147.278 64.3676 147.754 64.793 148.099C65.2183 148.436 65.7536 148.605 66.399 148.605ZM74.9544 150.024V138.65H77.2534V140.289C77.4367 139.981 77.6824 139.691 77.9904 139.42C78.3057 139.149 78.6907 138.929 79.1454 138.76C79.6074 138.591 80.139 138.507 80.7404 138.507C81.4517 138.507 82.108 138.65 82.7094 138.936C83.318 139.215 83.8057 139.655 84.1724 140.256C84.539 140.85 84.7224 141.62 84.7224 142.566V150.024H82.3684V142.819C82.3684 142.005 82.1484 141.4 81.7084 141.004C81.2757 140.608 80.7147 140.41 80.0254 140.41C79.5634 140.41 79.1234 140.487 78.7054 140.641C78.2874 140.795 77.95 141.03 77.6934 141.345C77.4367 141.653 77.3084 142.042 77.3084 142.511V150.024H74.9544ZM93.1185 134.118C93.1771 134.118 93.3495 134.122 93.6355 134.129C93.9288 134.129 94.2808 134.129 94.6915 134.129C95.1021 134.122 95.5201 134.122 95.9455 134.129C96.3781 134.129 96.7631 134.133 97.1005 134.14C99.0438 134.169 100.624 134.492 101.841 135.108C103.059 135.724 103.95 136.611 104.514 137.77C105.086 138.921 105.372 140.326 105.372 141.983C105.372 143.706 105.068 145.169 104.459 146.372C103.851 147.567 102.919 148.477 101.665 149.1C100.419 149.716 98.8385 150.024 96.9245 150.024H93.1185V134.118ZM95.5165 136.098V148.044H96.9465C98.1491 148.044 99.1941 147.85 100.081 147.461C100.976 147.065 101.669 146.427 102.16 145.547C102.652 144.66 102.897 143.475 102.897 141.994C102.897 140.542 102.663 139.387 102.193 138.529C101.724 137.664 101.049 137.044 100.169 136.67C99.2968 136.289 98.2445 136.098 97.0125 136.098H95.5165ZM107.313 150.024V148.616L113.506 140.355H107.588V138.65H116.333V140.058L110.129 148.319H116.377V150.024H107.313ZM121.183 138.65V150.024H118.917V138.65H121.183ZM121.227 134.129V136.45H118.862V134.129H121.227ZM134.954 150.024H132.512L129.091 144.535L127.045 146.658V150.024H124.691V133.678H127.045V144.073L132.072 138.65H134.712L130.598 143.039L134.954 150.024ZM139.681 138.65V150.024H137.415V138.65H139.681ZM139.725 134.129V136.45H137.36V134.129H139.725ZM143.189 150.024V138.65H145.444V140.982C145.634 140.425 145.898 139.959 146.236 139.585C146.58 139.204 146.98 138.918 147.435 138.727C147.889 138.529 148.37 138.43 148.876 138.43C149.03 138.43 149.176 138.441 149.316 138.463C149.455 138.478 149.565 138.507 149.646 138.551V140.817C149.55 140.773 149.426 140.744 149.272 140.729C149.125 140.714 148.997 140.703 148.887 140.696C148.388 140.659 147.933 140.685 147.523 140.773C147.112 140.861 146.756 141.008 146.456 141.213C146.162 141.418 145.935 141.686 145.774 142.016C145.62 142.346 145.543 142.735 145.543 143.182V150.024H143.189ZM156.018 150.024L161.76 134.118H164.356L170.087 150.024H167.711L166.215 145.855H159.934L158.405 150.024H156.018ZM160.495 143.721H165.61L163.069 136.428L160.495 143.721ZM172.515 153.566V138.65H174.869L174.891 140.542C175.03 140.293 175.21 140.047 175.43 139.805C175.65 139.556 175.91 139.328 176.211 139.123C176.519 138.91 176.867 138.742 177.256 138.617C177.652 138.492 178.088 138.43 178.565 138.43C179.46 138.43 180.248 138.639 180.93 139.057C181.619 139.468 182.155 140.102 182.536 140.96C182.925 141.811 183.119 142.892 183.119 144.205C183.119 145.525 182.925 146.632 182.536 147.527C182.155 148.422 181.608 149.1 180.897 149.562C180.186 150.017 179.342 150.244 178.367 150.244C177.898 150.244 177.476 150.178 177.102 150.046C176.728 149.914 176.398 149.742 176.112 149.529C175.826 149.309 175.58 149.074 175.375 148.825C175.177 148.568 175.012 148.315 174.88 148.066V153.566H172.515ZM177.872 148.451C178.745 148.451 179.46 148.114 180.017 147.439C180.582 146.757 180.864 145.694 180.864 144.249C180.864 143.01 180.604 142.031 180.083 141.312C179.57 140.586 178.833 140.223 177.872 140.223C176.882 140.223 176.134 140.601 175.628 141.356C175.122 142.104 174.869 143.068 174.869 144.249C174.869 145.019 174.979 145.723 175.199 146.361C175.426 146.992 175.764 147.498 176.211 147.879C176.658 148.26 177.212 148.451 177.872 148.451ZM185.642 153.566V138.65H187.996L188.018 140.542C188.157 140.293 188.337 140.047 188.557 139.805C188.777 139.556 189.037 139.328 189.338 139.123C189.646 138.91 189.994 138.742 190.383 138.617C190.779 138.492 191.215 138.43 191.692 138.43C192.587 138.43 193.375 138.639 194.057 139.057C194.746 139.468 195.282 140.102 195.663 140.96C196.052 141.811 196.246 142.892 196.246 144.205C196.246 145.525 196.052 146.632 195.663 147.527C195.282 148.422 194.735 149.1 194.024 149.562C193.313 150.017 192.469 150.244 191.494 150.244C191.025 150.244 190.603 150.178 190.229 150.046C189.855 149.914 189.525 149.742 189.239 149.529C188.953 149.309 188.707 149.074 188.502 148.825C188.304 148.568 188.139 148.315 188.007 148.066V153.566H185.642ZM190.999 148.451C191.872 148.451 192.587 148.114 193.144 147.439C193.709 146.757 193.991 145.694 193.991 144.249C193.991 143.01 193.731 142.031 193.21 141.312C192.697 140.586 191.96 140.223 190.999 140.223C190.009 140.223 189.261 140.601 188.755 141.356C188.249 142.104 187.996 143.068 187.996 144.249C187.996 145.019 188.106 145.723 188.326 146.361C188.553 146.992 188.891 147.498 189.338 147.879C189.785 148.26 190.339 148.451 190.999 148.451Z" fill="white"/>
<defs>
<filter id="filter0_f_839_264" x="39.6259" y="-10.2745" width="135.507" height="141.806" filterUnits="userSpaceOnUse" color-interpolation-filters="sRGB">
<feFlood flood-opacity="0" result="BackgroundImageFix"/>
<feBlend mode="normal" in="SourceGraphic" in2="BackgroundImageFix" result="shape"/>
<feGaussianBlur stdDeviation="9.08523" result="effect1_foregroundBlur_839_264"/>
</filter>
</defs>
</svg>
